<?xml version="1.0" encoding="UTF-8" standalone="no"?>
<!DOCTYPE svg PUBLIC "-//W3C//DTD SVG 1.1//EN" "http://www.w3.org/Graphics/SVG/1.1/DTD/svg11.dtd">
<svg version="1.1" xmlns="http://www.w3.org/2000/svg" xmlns:xlink="http://www.w3.org/1999/xlink" preserveAspectRatio="xMidYMid meet" viewBox="0 0 640 640" width="640" height="640"><defs><path d="M327.49 421.96C327.56 422.03 327.56 422.14 327.49 422.21C326.81 422.89 324.88 424.81 324.2 425.5C324.13 425.56 324.02 425.56 323.95 425.5C267.54 369.1 98.44 200.05 42.04 143.66C41.97 143.59 41.97 143.48 42.04 143.41C42.72 142.73 44.64 140.81 45.33 140.12C45.39 140.05 45.5 140.05 45.57 140.12C101.98 196.51 271.08 365.57 327.49 421.96Z" id="b4p7ot3y1J"></path><path d="M325.63 425.62C325.57 425.68 325.46 425.69 325.39 425.62C324.73 424.98 322.86 423.18 322.2 422.54C322.13 422.48 322.13 422.37 322.19 422.31C377.51 365.18 543.36 193.92 598.68 136.79C598.74 136.73 598.85 136.73 598.91 136.79C599.58 137.43 601.45 139.23 602.11 139.87C602.18 139.93 602.18 140.04 602.12 140.1C546.8 197.23 380.95 368.49 325.63 425.62Z" id="b3X3x80puT"></path><path d="M573.62 59.09C573.69 59.09 573.75 59.14 573.75 59.21C573.75 59.92 573.75 61.93 573.75 62.64C573.75 62.71 573.69 62.77 573.62 62.77C474.64 62.77 177.83 62.77 78.85 62.77C78.78 62.77 78.72 62.71 78.72 62.64C78.72 61.93 78.72 59.92 78.72 59.21C78.72 59.14 78.78 59.09 78.85 59.09C177.83 59.09 474.64 59.09 573.62 59.09Z" id="g1P5um3g56"></path><path d="M601.97 139.1C602 139.19 601.95 139.29 601.87 139.32C600.98 139.64 598.48 140.55 597.59 140.88C597.5 140.91 597.41 140.86 597.37 140.78C591.58 124.85 574.25 77.24 568.45 61.32C568.42 61.23 568.47 61.13 568.56 61.1C569.44 60.78 571.94 59.87 572.83 59.55C572.92 59.51 573.02 59.56 573.05 59.65C578.84 75.57 596.17 123.18 601.97 139.1Z" id="c4v6qwZ0aW"></path><path d="M78.72 59.95C78.75 59.87 78.84 59.84 78.92 59.87C79.68 60.22 81.85 61.18 82.62 61.52C82.69 61.56 82.73 61.64 82.69 61.72C75.29 78.35 53.14 128.11 45.73 144.74C45.7 144.81 45.61 144.85 45.53 144.81C44.77 144.47 42.6 143.51 41.83 143.17C41.76 143.13 41.72 143.04 41.76 142.97C49.16 126.34 71.31 76.58 78.72 59.95Z" id="a3SuIg8Yxp"></path><path d="M215.26 132.27C215.26 155.59 196.97 174.53 174.44 174.53C151.91 174.53 133.62 155.59 133.62 132.27C133.62 108.94 151.91 90 174.44 90C196.97 90 215.26 108.94 215.26 132.27Z" id="a31KbXLs4"></path><path d="M516.31 132.27C516.31 155.59 498.02 174.53 475.49 174.53C452.96 174.53 434.67 155.59 434.67 132.27C434.67 108.94 452.96 90 475.49 90C498.02 90 516.31 108.94 516.31 132.27Z" id="gkkh62QOF"></path><path d="M327.25 105.77C332.77 105.77 337.25 110.25 337.25 115.77C337.25 151.46 337.25 248.54 337.25 284.23C337.25 289.75 332.77 294.23 327.25 294.23C324.24 294.23 325.22 294.23 322.21 294.23C316.69 294.23 312.21 289.75 312.21 284.23C312.21 248.54 312.21 151.46 312.21 115.77C312.21 110.25 316.69 105.77 322.21 105.77C325.22 105.77 324.24 105.77 327.25 105.77Z" id="aWArXJeCH"></path><path d="M356.55 233.31C356.55 268.25 342.28 296.62 324.71 296.62C307.14 296.62 292.87 268.25 292.87 233.31C292.87 198.37 307.14 170 324.71 170C342.28 170 356.55 198.37 356.55 233.31Z" id="b1xVZTnzL7"></path><path d="M333.62 142.77C339.14 142.77 343.62 147.25 343.62 152.77C343.62 162.22 343.62 180.55 343.62 190C343.62 195.52 339.14 200 333.62 200C328.35 200 322.52 200 317.25 200C311.73 200 307.25 195.52 307.25 190C307.25 180.55 307.25 162.22 307.25 152.77C307.25 147.25 311.73 142.77 317.25 142.77C322.52 142.77 328.35 142.77 333.62 142.77Z" id="c3yXxXTBqe"></path><path d="M308.89 229.95C309.02 230.04 309.21 230 309.3 229.87C310.2 228.53 312.76 224.73 313.67 223.39C313.76 223.25 313.72 223.07 313.59 222.98C285.07 203.75 199.74 146.19 171.22 126.96C171.09 126.87 170.91 126.9 170.82 127.03C169.91 128.38 167.35 132.17 166.45 133.52C166.36 133.65 166.39 133.83 166.52 133.92C195.05 153.16 280.37 210.71 308.89 229.95Z" id="cjAe1cTX9"></path><path d="M342.81 220.63C342.67 220.72 342.64 220.9 342.73 221.03C343.63 222.38 346.19 226.17 347.1 227.52C347.19 227.65 347.37 227.68 347.5 227.59C376.03 208.36 461.35 150.81 489.87 131.57C490 131.48 490.04 131.3 489.95 131.16C489.04 129.82 486.48 126.02 485.58 124.68C485.49 124.55 485.31 124.51 485.17 124.6C456.65 143.84 371.33 201.39 342.81 220.63Z" id="a4lcRQvsfI"></path><path d="M344.93 234.73C345.02 234.64 345.02 234.49 344.93 234.4C344.03 233.5 341.5 230.97 340.6 230.07C340.51 229.98 340.36 229.98 340.27 230.07C319.78 250.56 258.48 311.86 237.99 332.35C237.9 332.44 237.9 332.59 237.99 332.68C238.89 333.58 241.42 336.11 242.32 337.01C242.41 337.1 242.56 337.1 242.65 337.01C263.14 316.52 324.44 255.22 344.93 234.73Z" id="b6GmnNt1oW"></path><path d="M407.25 335.64C407.33 335.72 407.47 335.72 407.55 335.64C408.36 334.8 410.65 332.43 411.46 331.59C411.54 331.51 411.53 331.37 411.45 331.29C392.53 313.02 335.9 258.33 316.97 240.06C316.89 239.98 316.76 239.98 316.68 240.06C315.87 240.9 313.58 243.27 312.77 244.11C312.69 244.19 312.69 244.33 312.78 244.41C331.7 262.68 388.33 317.37 407.25 335.64Z" id="a1C3m6Mwky"></path></defs><g><g><g><use xlink:href="#b4p7ot3y1J" opacity="1" fill="#b42020" fill-opacity="1"></use></g><g><use xlink:href="#b3X3x80puT" opacity="1" fill="#b42020" fill-opacity="1"></use></g><g><use xlink:href="#g1P5um3g56" opacity="1" fill="#b42020" fill-opacity="1"></use></g><g><use xlink:href="#c4v6qwZ0aW" opacity="1" fill="#b42020" fill-opacity="1"></use></g><g><use xlink:href="#a3SuIg8Yxp" opacity="1" fill="#b42020" fill-opacity="1"></use></g><g><use xlink:href="#a31KbXLs4" opacity="1" fill="#000000" fill-opacity="1"></use></g><g><use xlink:href="#gkkh62QOF" opacity="1" fill="#000000" fill-opacity="1"></use></g><g><use xlink:href="#aWArXJeCH" opacity="1" fill="#000000" fill-opacity="1"></use></g><g><use xlink:href="#b1xVZTnzL7" opacity="1" fill="#000000" fill-opacity="1"></use></g><g><use xlink:href="#c3yXxXTBqe" opacity="1" fill="#000000" fill-opacity="1"></use></g><g><use xlink:href="#cjAe1cTX9" opacity="1" fill="#000000" fill-opacity="1"></use></g><g><use xlink:href="#a4lcRQvsfI" opacity="1" fill="#050505" fill-opacity="1"></use></g><g><use xlink:href="#b6GmnNt1oW" opacity="1" fill="#000000" fill-opacity="1"></use></g><g><use xlink:href="#a1C3m6Mwky" opacity="1" fill="#000000" fill-opacity="1"></use></g></g></g></svg>